<svg width="32" height="32" viewBox="0 0 32 32" fill="none" xmlns="http://www.w3.org/2000/svg">
<g clip-path="url(#clip0_1569_1525)">
<path d="M10.768 28.864C10.096 28.864 9.52667 28.752 9.06 28.528C8.59333 28.3227 8.23867 27.9587 7.996 27.436C7.772 26.932 7.66 26.2413 7.66 25.364V20.912C7.66 19.9973 7.55733 19.2787 7.352 18.756C7.16533 18.2147 6.81067 17.8133 6.288 17.552C6.04533 17.4213 5.85867 17.272 5.728 17.104C5.59733 16.9173 5.532 16.6653 5.532 16.348V16.012C5.532 15.676 5.59733 15.424 5.728 15.256C5.85867 15.088 6.04533 14.9387 6.288 14.808C6.81067 14.5467 7.16533 14.1547 7.352 13.632C7.55733 13.0907 7.66 12.3627 7.66 11.448V6.996C7.66 6.1 7.772 5.4 7.996 4.896C8.23867 4.392 8.59333 4.03733 9.06 3.832C9.52667 3.608 10.096 3.496 10.768 3.496H11.412C11.6733 3.496 11.86 3.58 11.972 3.748C12.1027 3.89733 12.168 4.14933 12.168 4.504V4.812C12.168 5.484 11.9347 5.82 11.468 5.82H11.16C10.88 5.82 10.6933 5.904 10.6 6.072C10.5067 6.22133 10.46 6.52933 10.46 6.996V11.98C10.46 13.044 10.2733 13.94 9.9 14.668C9.54533 15.3773 9.032 15.8813 8.36 16.18C9.032 16.46 9.54533 16.964 9.9 17.692C10.2733 18.42 10.46 19.316 10.46 20.38V25.364C10.46 25.812 10.5067 26.12 10.6 26.288C10.6933 26.456 10.8707 26.54 11.132 26.54H11.468C11.9347 26.54 12.168 26.876 12.168 27.548V27.856C12.168 28.2107 12.1027 28.4627 11.972 28.612C11.86 28.78 11.6733 28.864 11.412 28.864H10.768ZM21.3142 3.496C22.0048 3.496 22.5742 3.608 23.0222 3.832C23.4888 4.03733 23.8342 4.392 24.0582 4.896C24.3008 5.4 24.4222 6.1 24.4222 6.996V11.448C24.4222 12.3627 24.5155 13.0907 24.7022 13.632C24.9075 14.1547 25.2715 14.5467 25.7942 14.808C26.0368 14.9387 26.2235 15.088 26.3542 15.256C26.4848 15.424 26.5502 15.676 26.5502 16.012V16.348C26.5502 16.6653 26.4848 16.9173 26.3542 17.104C26.2235 17.272 26.0368 17.4213 25.7942 17.552C25.2715 17.8133 24.9075 18.2147 24.7022 18.756C24.5155 19.2787 24.4222 19.9973 24.4222 20.912V25.364C24.4222 26.2413 24.3008 26.932 24.0582 27.436C23.8342 27.9587 23.4888 28.3227 23.0222 28.528C22.5742 28.752 22.0048 28.864 21.3142 28.864H20.6702C20.4088 28.864 20.2128 28.78 20.0822 28.612C19.9702 28.4627 19.9142 28.2107 19.9142 27.856V27.548C19.9142 26.876 20.1475 26.54 20.6142 26.54H20.9222C21.2022 26.54 21.3888 26.456 21.4822 26.288C21.5755 26.12 21.6222 25.812 21.6222 25.364V20.38C21.6222 19.2973 21.7995 18.4013 22.1542 17.692C22.5275 16.964 23.0502 16.46 23.7222 16.18C23.0502 15.8813 22.5275 15.3773 22.1542 14.668C21.7995 13.94 21.6222 13.044 21.6222 11.98V6.996C21.6222 6.548 21.5755 6.24 21.4822 6.072C21.3888 5.904 21.2115 5.82 20.9502 5.82H20.6142C20.1475 5.82 19.9142 5.484 19.9142 4.812V4.504C19.9142 4.14933 19.9702 3.89733 20.0822 3.748C20.2128 3.58 20.4088 3.496 20.6702 3.496H21.3142Z" fill="#FFD602"/>
</g>
<defs>
<clipPath id="clip0_1569_1525">
<rect width="32" height="32" fill="white"/>
</clipPath>
</defs>
</svg>
