<svg width="96" height="19" viewBox="0 0 96 19" fill="none" xmlns="http://www.w3.org/2000/svg">
<path d="M7.52 16.14C5.29333 16.14 3.64667 15.56 2.58 14.4C1.51333 13.24 0.98 11.4333 0.98 8.98C0.98 6.59333 1.53333 4.81333 2.64 3.64C3.76 2.45333 5.41333 1.86 7.6 1.86C8.02667 1.86 8.46667 1.89333 8.92 1.96C9.37333 2.01333 9.79333 2.1 10.18 2.22C10.5667 2.32667 10.8867 2.45333 11.14 2.6C11.3 2.69333 11.42 2.79333 11.5 2.9C11.5933 2.99333 11.64 3.09333 11.64 3.2C11.64 3.32 11.6133 3.46667 11.56 3.64C11.52 3.81333 11.46 3.98667 11.38 4.16C11.3 4.32 11.2067 4.46 11.1 4.58C10.9933 4.68667 10.8867 4.74 10.78 4.74C10.6333 4.74 10.42 4.68667 10.14 4.58C9.86 4.47333 9.50667 4.36667 9.08 4.26C8.66667 4.15333 8.16 4.1 7.56 4.1C6.68 4.1 5.95333 4.28 5.38 4.64C4.80667 4.98667 4.38 5.52 4.1 6.24C3.82 6.96 3.68 7.88 3.68 9C3.68 10.0933 3.82 11.0067 4.1 11.74C4.38 12.46 4.8 13 5.36 13.36C5.93333 13.72 6.65333 13.9 7.52 13.9C8.01333 13.9 8.45333 13.86 8.84 13.78C9.24 13.7 9.58667 13.6067 9.88 13.5C10.1733 13.38 10.4133 13.28 10.6 13.2C10.8 13.12 10.9467 13.08 11.04 13.08C11.1733 13.08 11.2867 13.14 11.38 13.26C11.4867 13.38 11.5733 13.5267 11.64 13.7C11.72 13.86 11.7733 14.0267 11.8 14.2C11.84 14.36 11.86 14.4733 11.86 14.54C11.86 14.7267 11.8067 14.88 11.7 15C11.5933 15.1067 11.4067 15.2333 11.14 15.38C10.8467 15.54 10.4933 15.68 10.08 15.8C9.68 15.9067 9.25333 15.9867 8.8 16.04C8.36 16.1067 7.93333 16.14 7.52 16.14ZM18.1028 16.14C16.5428 16.14 15.3561 15.68 14.5428 14.76C13.7295 13.84 13.3228 12.5133 13.3228 10.78C13.3228 9.03333 13.7295 7.7 14.5428 6.78C15.3561 5.86 16.5428 5.4 18.1028 5.4C19.6495 5.4 20.8228 5.86 21.6228 6.78C22.4228 7.7 22.8228 9.03333 22.8228 10.78C22.8228 12.5133 22.4228 13.84 21.6228 14.76C20.8361 15.68 19.6628 16.14 18.1028 16.14ZM18.0828 14.12C18.8295 14.12 19.3761 13.84 19.7228 13.28C20.0695 12.72 20.2428 11.88 20.2428 10.76C20.2428 9.65333 20.0695 8.82 19.7228 8.26C19.3761 7.7 18.8295 7.42 18.0828 7.42C17.3361 7.42 16.7828 7.7 16.4228 8.26C16.0761 8.80667 15.9028 9.64667 15.9028 10.78C15.9028 11.8867 16.0761 12.72 16.4228 13.28C16.7828 13.84 17.3361 14.12 18.0828 14.12ZM28.4695 16.14C27.7229 16.14 27.0629 15.94 26.4895 15.54C25.9295 15.1267 25.4895 14.52 25.1695 13.72C24.8629 12.92 24.7095 11.94 24.7095 10.78C24.7095 9.7 24.8695 8.76 25.1895 7.96C25.5095 7.16 25.9695 6.53333 26.5695 6.08C27.1829 5.62667 27.9162 5.4 28.7695 5.4C29.2895 5.4 29.7495 5.47333 30.1495 5.62C30.5495 5.76667 30.8762 5.93333 31.1295 6.12V1.52C31.1295 1.33333 31.2162 1.19333 31.3895 1.1C31.5629 0.993333 31.8429 0.94 32.2295 0.94H32.6095C32.9829 0.94 33.2562 0.993333 33.4295 1.1C33.6029 1.19333 33.6895 1.33333 33.6895 1.52V12.68C33.6895 13.2533 33.7029 13.7133 33.7295 14.06C33.7695 14.4067 33.8029 14.6867 33.8295 14.9C33.8695 15.1 33.8895 15.26 33.8895 15.38C33.8895 15.5133 33.8095 15.62 33.6495 15.7C33.5029 15.78 33.3162 15.8467 33.0895 15.9C32.8762 15.94 32.6629 15.9733 32.4495 16C32.2495 16.0133 32.0962 16.02 31.9895 16.02C31.8429 16.02 31.7295 15.98 31.6495 15.9C31.5695 15.82 31.5029 15.68 31.4495 15.48C31.3962 15.28 31.3362 15 31.2695 14.64C31.0829 14.9333 30.8429 15.1933 30.5495 15.42C30.2562 15.6467 29.9362 15.8267 29.5895 15.96C29.2429 16.08 28.8695 16.14 28.4695 16.14ZM29.2295 14.06C29.6295 14.06 29.9895 13.94 30.3095 13.7C30.6429 13.4467 30.9162 13.1467 31.1295 12.8V8.06C30.9029 7.87333 30.6295 7.72 30.3095 7.6C29.9895 7.48 29.6562 7.42 29.3095 7.42C28.6562 7.42 28.1562 7.70667 27.8095 8.28C27.4629 8.85333 27.2895 9.68667 27.2895 10.78C27.2895 11.8733 27.4562 12.6933 27.7895 13.24C28.1229 13.7867 28.6029 14.06 29.2295 14.06ZM41.0781 16.14C39.3581 16.14 38.0848 15.6867 37.2581 14.78C36.4315 13.8733 36.0181 12.56 36.0181 10.84C36.0181 9.57333 36.2115 8.54 36.5981 7.74C36.9981 6.94 37.5581 6.35333 38.2781 5.98C38.9981 5.59333 39.8381 5.4 40.7981 5.4C41.8115 5.4 42.6248 5.62667 43.2381 6.08C43.8648 6.52 44.3181 7.12667 44.5981 7.9C44.8915 8.66 45.0381 9.52667 45.0381 10.5C45.0381 10.6467 44.9848 10.8133 44.8781 11C44.7715 11.1733 44.6448 11.32 44.4981 11.44C44.3515 11.56 44.2115 11.62 44.0781 11.62H38.5981C38.6248 12.5267 38.8648 13.1733 39.3181 13.56C39.7715 13.9333 40.3915 14.12 41.1781 14.12C41.6981 14.12 42.1515 14.0533 42.5381 13.92C42.9248 13.7867 43.2381 13.6533 43.4781 13.52C43.7315 13.3867 43.9115 13.32 44.0181 13.32C44.1381 13.32 44.2515 13.4067 44.3581 13.58C44.4781 13.7533 44.5781 13.9467 44.6581 14.16C44.7381 14.3733 44.7781 14.54 44.7781 14.66C44.7781 14.8333 44.6581 15.0067 44.4181 15.18C44.1915 15.3533 43.8848 15.52 43.4981 15.68C43.1248 15.8267 42.7248 15.94 42.2981 16.02C41.8715 16.1 41.4648 16.14 41.0781 16.14ZM38.5781 9.84H42.5981C42.5981 9.04 42.4315 8.44 42.0981 8.04C41.7781 7.62667 41.2981 7.42 40.6581 7.42C40.2981 7.42 39.9581 7.5 39.6381 7.66C39.3315 7.80667 39.0781 8.05333 38.8781 8.4C38.6915 8.74667 38.5915 9.22667 38.5781 9.84Z" fill="#121212"/>
<path d="M48.4594 16.04C48.086 16.04 47.8127 15.9933 47.6394 15.9C47.466 15.7933 47.3794 15.6467 47.3794 15.46V2.74C47.3794 2.24667 47.6127 2 48.0794 2H52.0394C53.706 2 54.9327 2.34 55.7194 3.02C56.5194 3.7 56.9194 4.68 56.9194 5.96C56.9194 6.53333 56.826 7.04667 56.6394 7.5C56.466 7.95333 56.1994 8.33333 55.8394 8.64C55.4927 8.93333 55.066 9.15333 54.5594 9.3V9.38C54.8527 9.47333 55.1194 9.67333 55.3594 9.98C55.6127 10.2867 55.8194 10.6533 55.9794 11.08L57.5794 15.08C57.6327 15.2 57.6727 15.3067 57.6994 15.4C57.726 15.4933 57.7394 15.5733 57.7394 15.64C57.7394 15.7867 57.6594 15.8933 57.4994 15.96C57.3394 16.0133 57.0727 16.04 56.6994 16.04H56.0794C55.826 16.04 55.606 16.0067 55.4194 15.94C55.2327 15.8733 55.0994 15.74 55.0194 15.54L53.4594 11.68C53.3394 11.36 53.1927 11.1067 53.0194 10.92C52.846 10.72 52.6194 10.5733 52.3394 10.48C52.0727 10.3867 51.7194 10.34 51.2794 10.34H50.0394V15.46C50.0394 15.6467 49.9527 15.7933 49.7794 15.9C49.6194 15.9933 49.346 16.04 48.9594 16.04H48.4594ZM50.0394 8.22H52.1394C52.8727 8.22 53.3994 8.06667 53.7194 7.76C54.0527 7.45333 54.2194 6.95333 54.2194 6.26C54.2194 5.55333 54.0527 5.04 53.7194 4.72C53.3994 4.4 52.8727 4.24 52.1394 4.24H50.0394V8.22ZM62.3064 16.14C61.3197 16.14 60.5731 15.88 60.0664 15.36C59.5597 14.8267 59.3064 14.0333 59.3064 12.98V6.08C59.3064 5.89333 59.3864 5.75333 59.5464 5.66C59.7197 5.55333 59.9931 5.5 60.3664 5.5H60.7864C61.1731 5.5 61.4464 5.55333 61.6064 5.66C61.7797 5.75333 61.8664 5.89333 61.8664 6.08V12.64C61.8664 13.08 61.9731 13.4267 62.1864 13.68C62.4131 13.92 62.7664 14.04 63.2464 14.04C63.4997 14.04 63.7531 13.9933 64.0064 13.9C64.2731 13.7933 64.5131 13.6467 64.7264 13.46C64.9531 13.2733 65.1331 13.0533 65.2664 12.8V6.08C65.2664 5.89333 65.3464 5.75333 65.5064 5.66C65.6797 5.55333 65.9531 5.5 66.3264 5.5H66.7664C67.1397 5.5 67.4064 5.55333 67.5664 5.66C67.7397 5.75333 67.8264 5.89333 67.8264 6.08V12.68C67.8264 13.2533 67.8397 13.7133 67.8664 14.06C67.9064 14.4067 67.9397 14.6867 67.9664 14.9C68.0064 15.1 68.0264 15.26 68.0264 15.38C68.0264 15.5133 67.9464 15.62 67.7864 15.7C67.6397 15.78 67.4531 15.8467 67.2264 15.9C67.0131 15.94 66.7997 15.9733 66.5864 16C66.3864 16.0133 66.2331 16.02 66.1264 16.02C65.9797 16.02 65.8664 15.98 65.7864 15.9C65.7064 15.82 65.6397 15.68 65.5864 15.48C65.5331 15.28 65.4731 15 65.4064 14.64C65.1931 14.9067 64.9197 15.16 64.5864 15.4C64.2664 15.6267 63.9131 15.8067 63.5264 15.94C63.1397 16.0733 62.7331 16.14 62.3064 16.14ZM71.6392 16.04C71.2659 16.04 70.9926 15.9933 70.8192 15.9C70.6592 15.7933 70.5792 15.6467 70.5792 15.46V8.86C70.5792 8.28667 70.5592 7.82667 70.5192 7.48C70.4926 7.12 70.4592 6.84 70.4192 6.64C70.3926 6.44 70.3792 6.28 70.3792 6.16C70.3792 6.04 70.4526 5.94 70.5992 5.86C70.7592 5.78 70.9459 5.72 71.1592 5.68C71.3859 5.64 71.5992 5.61333 71.7992 5.6C72.0126 5.57333 72.1726 5.56 72.2792 5.56C72.4259 5.56 72.5392 5.6 72.6192 5.68C72.6992 5.76 72.7659 5.89333 72.8192 6.08C72.8726 6.26667 72.9326 6.54 72.9992 6.9C73.2259 6.63333 73.4926 6.38667 73.7992 6.16C74.1192 5.92 74.4659 5.73333 74.8392 5.6C75.2126 5.46667 75.6059 5.4 76.0192 5.4C76.6992 5.4 77.2659 5.52 77.7192 5.76C78.1859 6 78.5326 6.36 78.7592 6.84C78.9859 7.30667 79.0992 7.90667 79.0992 8.64V15.46C79.0992 15.6467 79.0126 15.7933 78.8392 15.9C78.6792 15.9933 78.4126 16.04 78.0392 16.04H77.6192C77.2326 16.04 76.9526 15.9933 76.7792 15.9C76.6192 15.7933 76.5392 15.6467 76.5392 15.46V8.98C76.5392 8.5 76.4259 8.13333 76.1992 7.88C75.9726 7.62667 75.5992 7.5 75.0792 7.5C74.8392 7.5 74.5926 7.55333 74.3392 7.66C74.0859 7.75333 73.8526 7.89333 73.6392 8.08C73.4392 8.26667 73.2726 8.48667 73.1392 8.74V15.46C73.1392 15.6467 73.0526 15.7933 72.8792 15.9C72.7192 15.9933 72.4526 16.04 72.0792 16.04H71.6392Z" fill="#5EEAD4"/>
<path d="M84.452 18.76C83.972 18.76 83.5654 18.68 83.232 18.52C82.8987 18.3733 82.6454 18.1133 82.472 17.74C82.312 17.38 82.232 16.8867 82.232 16.26V13.08C82.232 12.4267 82.1587 11.9133 82.012 11.54C81.8787 11.1533 81.6254 10.8667 81.252 10.68C81.0787 10.5867 80.9454 10.48 80.852 10.36C80.7587 10.2267 80.712 10.0467 80.712 9.82V9.58C80.712 9.34 80.7587 9.16 80.852 9.04C80.9454 8.92 81.0787 8.81333 81.252 8.72C81.6254 8.53333 81.8787 8.25333 82.012 7.88C82.1587 7.49333 82.232 6.97333 82.232 6.32V3.14C82.232 2.5 82.312 2 82.472 1.64C82.6454 1.28 82.8987 1.02667 83.232 0.879999C83.5654 0.72 83.972 0.64 84.452 0.64H84.912C85.0987 0.64 85.232 0.699999 85.312 0.819999C85.4054 0.926666 85.452 1.10667 85.452 1.36V1.58C85.452 2.06 85.2854 2.3 84.952 2.3H84.732C84.532 2.3 84.3987 2.36 84.332 2.48C84.2654 2.58667 84.232 2.80667 84.232 3.14V6.7C84.232 7.46 84.0987 8.1 83.832 8.62C83.5787 9.12667 83.212 9.48667 82.732 9.7C83.212 9.9 83.5787 10.26 83.832 10.78C84.0987 11.3 84.232 11.94 84.232 12.7V16.26C84.232 16.58 84.2654 16.8 84.332 16.92C84.3987 17.04 84.5254 17.1 84.712 17.1H84.952C85.2854 17.1 85.452 17.34 85.452 17.82V18.04C85.452 18.2933 85.4054 18.4733 85.312 18.58C85.232 18.7 85.0987 18.76 84.912 18.76H84.452ZM91.985 0.64C92.4783 0.64 92.885 0.72 93.205 0.879999C93.5383 1.02667 93.785 1.28 93.945 1.64C94.1183 2 94.205 2.5 94.205 3.14V6.32C94.205 6.97333 94.2717 7.49333 94.405 7.88C94.5517 8.25333 94.8117 8.53333 95.185 8.72C95.3583 8.81333 95.4917 8.92 95.585 9.04C95.6783 9.16 95.725 9.34 95.725 9.58V9.82C95.725 10.0467 95.6783 10.2267 95.585 10.36C95.4917 10.48 95.3583 10.5867 95.185 10.68C94.8117 10.8667 94.5517 11.1533 94.405 11.54C94.2717 11.9133 94.205 12.4267 94.205 13.08V16.26C94.205 16.8867 94.1183 17.38 93.945 17.74C93.785 18.1133 93.5383 18.3733 93.205 18.52C92.885 18.68 92.4783 18.76 91.985 18.76H91.525C91.3383 18.76 91.1983 18.7 91.105 18.58C91.025 18.4733 90.985 18.2933 90.985 18.04V17.82C90.985 17.34 91.1517 17.1 91.485 17.1H91.705C91.905 17.1 92.0383 17.04 92.105 16.92C92.1717 16.8 92.205 16.58 92.205 16.26V12.7C92.205 11.9267 92.3317 11.2867 92.585 10.78C92.8517 10.26 93.225 9.9 93.705 9.7C93.225 9.48667 92.8517 9.12667 92.585 8.62C92.3317 8.1 92.205 7.46 92.205 6.7V3.14C92.205 2.82 92.1717 2.6 92.105 2.48C92.0383 2.36 91.9117 2.3 91.725 2.3H91.485C91.1517 2.3 90.985 2.06 90.985 1.58V1.36C90.985 1.10667 91.025 0.926666 91.105 0.819999C91.1983 0.699999 91.3383 0.64 91.525 0.64H91.985Z" fill="#FFD602"/>
</svg>
