<?xml version="1.0" encoding="UTF-8"?>
<svg width="800px" height="800px" viewBox="0 0 32 32" fill="none" xmlns="http://www.w3.org/2000/svg">
  <path d="M16 21.5C19.0376 21.5 21.5 19.0376 21.5 16C21.5 12.9624 19.0376 10.5 16 10.5C12.9624 10.5 10.5 12.9624 10.5 16C10.5 19.0376 12.9624 21.5 16 21.5Z" fill="#61DAFB"/>
  <path d="M16 22.5C16 22.5 10 23.5 6 20.5C2 17.5 4 10.5 9 7.5C14 4.5 16 4.5 16 4.5V7.5V10.5V22.5Z" fill="#61DAFB"/>
  <path d="M16 22.5C16 22.5 22 23.5 26 20.5C30 17.5 28 10.5 23 7.5C18 4.5 16 4.5 16 4.5V7.5V10.5V22.5Z" fill="#61DAFB"/>
  <path d="M10.5 16C10.5 16 8 16 6.5 14.5C5 13 5 10.5 5 10.5C5 10.5 7.5 11 9 12.5C10.5 14 10.5 16 10.5 16Z" fill="#61DAFB"/>
  <path d="M21.5 16C21.5 16 24 16 25.5 14.5C27 13 27 10.5 27 10.5C27 10.5 24.5 11 23 12.5C21.5 14 21.5 16 21.5 16Z" fill="#61DAFB"/>
  <path d="M10.5 16C10.5 16 8 16 6.5 17.5C5 19 5 21.5 5 21.5C5 21.5 7.5 21 9 19.5C10.5 18 10.5 16 10.5 16Z" fill="#61DAFB"/>
  <path d="M21.5 16C21.5 16 24 16 25.5 17.5C27 19 27 21.5 27 21.5C27 21.5 24.5 21 23 19.5C21.5 18 21.5 16 21.5 16Z" fill="#61DAFB"/>
</svg>
