<svg width="32" height="33" viewBox="0 0 32 33" fill="none" xmlns="http://www.w3.org/2000/svg">
<path d="M14.6666 25.8718V27.2051C14.6666 27.5587 14.5261 27.8979 14.2761 28.1479C14.026 28.398 13.6869 28.5385 13.3333 28.5385H10.6666V29.8718C10.6666 30.579 10.3857 31.2573 9.88556 31.7574C9.38547 32.2575 8.70719 32.5385 7.99995 32.5385H2.66665C1.95941 32.5385 1.28114 32.2575 0.781044 31.7574C0.28095 31.2573 0 30.579 0 29.8718V26.4238C0.000151032 25.7166 0.2812 25.0384 0.781329 24.5385L11.1013 14.2185C10.4685 12.0698 10.5282 9.77637 11.2719 7.6635C12.0156 5.55063 13.4056 3.72551 15.2448 2.44692C17.0839 1.16834 19.2789 0.501184 21.5185 0.54006C23.7581 0.578935 25.9286 1.32187 27.7223 2.66351C29.516 4.00516 30.8418 5.87742 31.5117 8.01483C32.1817 10.1522 32.1617 12.4463 31.4548 14.5718C30.7478 16.6972 29.3897 18.5462 27.573 19.8564C25.7562 21.1667 23.5731 21.8718 21.3332 21.8718H18.6639V24.5385C18.6639 24.8921 18.5234 25.2312 18.2734 25.4813C18.0233 25.7313 17.6842 25.8718 17.3306 25.8718H14.6666ZM23.9999 11.2051C24.7071 11.2051 25.3854 10.9242 25.8855 10.4241C26.3856 9.92397 26.6665 9.2457 26.6665 8.53845C26.6665 7.83121 26.3856 7.15293 25.8855 6.65284C25.3854 6.15274 24.7071 5.87179 23.9999 5.87179C23.2926 5.87179 22.6143 6.15274 22.1143 6.65284C21.6142 7.15293 21.3332 7.83121 21.3332 8.53845C21.3332 9.2457 21.6142 9.92397 22.1143 10.4241C22.6143 10.9242 23.2926 11.2051 23.9999 11.2051Z" fill="#009382"/>
</svg>
