<svg width="35" height="26" viewBox="0 0 35 26" fill="none" xmlns="http://www.w3.org/2000/svg">
<path d="M1.47314 13.0738C1.47314 7.8539 1.47314 5.24325 3.34834 3.62232C5.22354 2.00138 8.23954 2 14.2731 2H20.6731C26.7067 2 29.7243 2 31.5979 3.62232C33.4715 5.24463 33.4731 7.8539 33.4731 13.0738C33.4731 18.2938 33.4731 20.9044 31.5979 22.5253C29.7227 24.1463 26.7067 24.1477 20.6731 24.1477H14.2731C8.23954 24.1477 5.22194 24.1477 3.34834 22.5253C1.47474 20.903 1.47314 18.2938 1.47314 13.0738Z" stroke="#009382" stroke-width="2.5"/>
<path d="M7.8728 7.53674L11.3272 10.0284C14.2664 12.1462 15.7352 13.2052 17.4728 13.2052C19.2104 13.2052 20.6808 12.1462 23.6184 10.027L27.0728 7.53674" stroke="#009382" stroke-width="2.5" stroke-linecap="round"/>
</svg>
